<svg width="37" height="48" viewBox="0 0 37 48" fill="none" xmlns="http://www.w3.org/2000/svg">
<path d="M18.2857 36.5714C15.7486 36.5714 13.7143 34.5143 13.7143 32C13.7143 29.4629 15.7486 27.4286 18.2857 27.4286C19.4981 27.4286 20.6609 27.9102 21.5182 28.7675C22.3755 29.6248 22.8571 30.7876 22.8571 32C22.8571 33.2124 22.3755 34.3752 21.5182 35.2325C20.6609 36.0898 19.4981 36.5714 18.2857 36.5714ZM32 43.4286V20.5714H4.57143V43.4286H32ZM32 16C33.2124 16 34.3752 16.4816 35.2325 17.3389C36.0898 18.1963 36.5714 19.359 36.5714 20.5714V43.4286C36.5714 44.641 36.0898 45.8038 35.2325 46.6611C34.3752 47.5184 33.2124 48 32 48H4.57143C2.03429 48 0 45.9429 0 43.4286V20.5714C0 18.0343 2.03429 16 4.57143 16H6.85714V11.4286C6.85714 8.39753 8.06122 5.49062 10.2045 3.34735C12.3478 1.20408 15.2547 0 18.2857 0C19.7865 0 21.2727 0.295609 22.6592 0.869948C24.0458 1.44429 25.3057 2.28611 26.3669 3.34735C27.4282 4.40859 28.27 5.66847 28.8443 7.05505C29.4187 8.44162 29.7143 9.92775 29.7143 11.4286V16H32ZM18.2857 4.57143C16.4671 4.57143 14.7229 5.29388 13.437 6.57984C12.151 7.8658 11.4286 9.60994 11.4286 11.4286V16H25.1429V11.4286C25.1429 9.60994 24.4204 7.8658 23.1344 6.57984C21.8485 5.29388 20.1043 4.57143 18.2857 4.57143Z" fill="#9A9A9A"/>
</svg>
