<svg width="12" height="12" viewBox="0 0 12 12" fill="none" xmlns="http://www.w3.org/2000/svg">
<path d="M9.33125 1.72235L8.31172 2.74588C9.52812 3.48706 10.3438 4.82118 10.3438 6.35294C10.3438 7.47621 9.89928 8.55348 9.10811 9.34775C8.31694 10.142 7.24388 10.5882 6.125 10.5882C5.00612 10.5882 3.93306 10.142 3.14189 9.34775C2.35072 8.55348 1.90625 7.47621 1.90625 6.35294C1.90625 4.82118 2.72187 3.48706 3.93125 2.73882L2.91875 1.72235C1.45625 2.73882 0.5 4.43294 0.5 6.35294C0.5 7.85063 1.09263 9.28699 2.14752 10.346C3.20242 11.405 4.63316 12 6.125 12C7.61684 12 9.04758 11.405 10.1025 10.346C11.1574 9.28699 11.75 7.85063 11.75 6.35294C11.75 4.43294 10.7937 2.73882 9.33125 1.72235ZM6.82812 0H5.42188V7.05882H6.82812" fill="white"/>
</svg>
