<svg width="12" height="12" viewBox="0 0 12 12" fill="none" xmlns="http://www.w3.org/2000/svg">
<path d="M5.8376 3.6C6.47412 3.6 7.08457 3.85286 7.53466 4.30294C7.98474 4.75303 8.2376 5.36348 8.2376 6C8.2376 6.63652 7.98474 7.24697 7.53466 7.69706C7.08457 8.14714 6.47412 8.4 5.8376 8.4C5.20108 8.4 4.59063 8.14714 4.14054 7.69706C3.69046 7.24697 3.4376 6.63652 3.4376 6C3.4376 5.36348 3.69046 4.75303 4.14054 4.30294C4.59063 3.85286 5.20108 3.6 5.8376 3.6ZM5.8376 4.8C5.51934 4.8 5.21412 4.92643 4.98907 5.15147C4.76403 5.37652 4.6376 5.68174 4.6376 6C4.6376 6.31826 4.76403 6.62348 4.98907 6.84853C5.21412 7.07357 5.51934 7.2 5.8376 7.2C6.15586 7.2 6.46108 7.07357 6.68613 6.84853C6.91117 6.62348 7.0376 6.31826 7.0376 6C7.0376 5.68174 6.91117 5.37652 6.68613 5.15147C6.46108 4.92643 6.15586 4.8 5.8376 4.8ZM4.6376 12C4.4876 12 4.3616 11.892 4.3376 11.748L4.1156 10.158C3.7376 10.008 3.4136 9.804 3.1016 9.564L1.6076 10.17C1.4756 10.218 1.3136 10.17 1.2416 10.038L0.0415989 7.962C-0.0364011 7.83 -0.000400981 7.668 0.113599 7.578L1.3796 6.582L1.3376 6L1.3796 5.4L0.113599 4.422C-0.000400981 4.332 -0.0364011 4.17 0.0415989 4.038L1.2416 1.962C1.3136 1.83 1.4756 1.776 1.6076 1.83L3.1016 2.43C3.4136 2.196 3.7376 1.992 4.1156 1.842L4.3376 0.252C4.3616 0.108 4.4876 0 4.6376 0H7.0376C7.1876 0 7.3136 0.108 7.3376 0.252L7.5596 1.842C7.9376 1.992 8.2616 2.196 8.5736 2.43L10.0676 1.83C10.1996 1.776 10.3616 1.83 10.4336 1.962L11.6336 4.038C11.7116 4.17 11.6756 4.332 11.5616 4.422L10.2956 5.4L10.3376 6L10.2956 6.6L11.5616 7.578C11.6756 7.668 11.7116 7.83 11.6336 7.962L10.4336 10.038C10.3616 10.17 10.1996 10.224 10.0676 10.17L8.5736 9.57C8.2616 9.804 7.9376 10.008 7.5596 10.158L7.3376 11.748C7.3136 11.892 7.1876 12 7.0376 12H4.6376ZM5.3876 1.2L5.1656 2.766C4.4456 2.916 3.8096 3.3 3.3476 3.834L1.9016 3.21L1.4516 3.99L2.7176 4.92C2.4776 5.622 2.4776 6.384 2.7176 7.08L1.4456 8.016L1.8956 8.796L3.3536 8.172C3.8156 8.7 4.4456 9.084 5.1596 9.228L5.3816 10.8H6.2936L6.5156 9.234C7.2296 9.084 7.8596 8.7 8.3216 8.172L9.7796 8.796L10.2296 8.016L8.9576 7.086C9.1976 6.384 9.1976 5.622 8.9576 4.92L10.2236 3.99L9.7736 3.21L8.3276 3.834C7.8656 3.3 7.2296 2.916 6.5096 2.772L6.2876 1.2H5.3876Z" fill="white"/>
</svg>
